<svg width="17" height="16" viewBox="0 0 17 16" fill="none" xmlns="http://www.w3.org/2000/svg">
<g clip-path="url(#clip0_0_203)">
<path d="M1 9.9C1.13261 9.9 1.25979 9.95268 1.35355 10.0464C1.44732 10.1402 1.5 10.2674 1.5 10.4V12.9C1.5 13.1652 1.60536 13.4196 1.79289 13.6071C1.98043 13.7946 2.23478 13.9 2.5 13.9H14.5C14.7652 13.9 15.0196 13.7946 15.2071 13.6071C15.3946 13.4196 15.5 13.1652 15.5 12.9V10.4C15.5 10.2674 15.5527 10.1402 15.6464 10.0464C15.7402 9.95268 15.8674 9.9 16 9.9C16.1326 9.9 16.2598 9.95268 16.3536 10.0464C16.4473 10.1402 16.5 10.2674 16.5 10.4V12.9C16.5 13.4304 16.2893 13.9391 15.9142 14.3142C15.5391 14.6893 15.0304 14.9 14.5 14.9H2.5C1.96957 14.9 1.46086 14.6893 1.08579 14.3142C0.710714 13.9391 0.5 13.4304 0.5 12.9V10.4C0.5 10.2674 0.552678 10.1402 0.646447 10.0464C0.740215 9.95268 0.867392 9.9 1 9.9Z" fill="#737373"/>
<path d="M8.14599 11.854C8.19244 11.9006 8.24761 11.9375 8.30836 11.9627C8.3691 11.9879 8.43422 12.0009 8.49999 12.0009C8.56576 12.0009 8.63088 11.9879 8.69162 11.9627C8.75237 11.9375 8.80755 11.9006 8.85399 11.854L11.854 8.854C11.9479 8.76011 12.0006 8.63278 12.0006 8.5C12.0006 8.36722 11.9479 8.23989 11.854 8.146C11.7601 8.05211 11.6328 7.99937 11.5 7.99937C11.3672 7.99937 11.2399 8.05211 11.146 8.146L8.99999 10.293V1.5C8.99999 1.36739 8.94731 1.24021 8.85354 1.14645C8.75978 1.05268 8.6326 1 8.49999 1C8.36738 1 8.24021 1.05268 8.14644 1.14645C8.05267 1.24021 7.99999 1.36739 7.99999 1.5V10.293L5.85399 8.146C5.7601 8.05211 5.63277 7.99937 5.49999 7.99937C5.36722 7.99937 5.23988 8.05211 5.14599 8.146C5.0521 8.23989 4.99936 8.36722 4.99936 8.5C4.99936 8.63278 5.0521 8.76011 5.14599 8.854L8.14599 11.854Z" fill="#737373"/>
</g>
<defs>
<clipPath id="clip0_0_203">
<rect width="16" height="16" fill="white" transform="translate(0.5)"/>
</clipPath>
</defs>
</svg>
