<svg width="24" height="30" viewBox="0 0 24 30" fill="none" xmlns="http://www.w3.org/2000/svg">
<path d="M12 18.0001C15.3089 18.0001 17.9999 15.3091 17.9999 12.0001C17.9999 8.69117 15.3089 6.0002 12 6.0002C8.69101 6.0002 6.00004 8.69117 6.00004 12.0001C6.00004 15.3091 8.69101 18.0001 12 18.0001ZM12 9.00016C13.6545 9.00016 14.9999 10.3456 14.9999 12.0001C14.9999 13.6546 13.6545 15.0001 12 15.0001C10.3455 15.0001 9.00001 13.6546 9.00001 12.0001C9.00001 10.3456 10.3455 9.00016 12 9.00016ZM11.13 29.7209C11.3839 29.9022 11.688 29.9997 12 29.9997C12.312 29.9997 12.6161 29.9022 12.87 29.7209C13.326 29.3984 24.0434 21.66 23.9999 12.0001C23.9999 5.38369 18.6164 0.000244141 12 0.000244141C5.38357 0.000244141 0.000132055 5.38369 0.000132055 11.9926C-0.0433675 21.66 10.674 29.3984 11.13 29.7209ZM12 3.00021C16.9634 3.00021 20.9999 7.03667 20.9999 12.0076C21.0314 18.6645 14.418 24.642 12 26.6025C9.58353 24.6405 2.9686 18.6615 3.0001 12.0001C3.0001 7.03667 7.03655 3.00021 12 3.00021ZM12 18.0001C15.3089 18.0001 17.9999 15.3091 17.9999 12.0001C17.9999 8.69117 15.3089 6.0002 12 6.0002C8.69101 6.0002 6.00004 8.69117 6.00004 12.0001C6.00004 15.3091 8.69101 18.0001 12 18.0001ZM12 9.00016C13.6545 9.00016 14.9999 10.3456 14.9999 12.0001C14.9999 13.6546 13.6545 15.0001 12 15.0001C10.3455 15.0001 9.00001 13.6546 9.00001 12.0001C9.00001 10.3456 10.3455 9.00016 12 9.00016ZM11.13 29.7209C11.3839 29.9022 11.688 29.9997 12 29.9997C12.312 29.9997 12.6161 29.9022 12.87 29.7209C13.326 29.3984 24.0434 21.66 23.9999 12.0001C23.9999 5.38369 18.6164 0.000244141 12 0.000244141C5.38357 0.000244141 0.000132055 5.38369 0.000132055 11.9926C-0.0433675 21.66 10.674 29.3984 11.13 29.7209ZM12 3.00021C16.9634 3.00021 20.9999 7.03667 20.9999 12.0076C21.0314 18.6645 14.418 24.642 12 26.6025C9.58353 24.6405 2.9686 18.6615 3.0001 12.0001C3.0001 7.03667 7.03655 3.00021 12 3.00021Z" fill="white"/>
<path d="M12 18.0001C15.3089 18.0001 17.9999 15.3091 17.9999 12.0001C17.9999 8.69117 15.3089 6.0002 12 6.0002C8.69101 6.0002 6.00004 8.69117 6.00004 12.0001C6.00004 15.3091 8.69101 18.0001 12 18.0001ZM12 9.00016C13.6545 9.00016 14.9999 10.3456 14.9999 12.0001C14.9999 13.6546 13.6545 15.0001 12 15.0001C10.3455 15.0001 9.00001 13.6546 9.00001 12.0001C9.00001 10.3456 10.3455 9.00016 12 9.00016ZM11.13 29.7209C11.3839 29.9022 11.688 29.9997 12 29.9997C12.312 29.9997 12.6161 29.9022 12.87 29.7209C13.326 29.3984 24.0434 21.66 23.9999 12.0001C23.9999 5.38369 18.6164 0.000244141 12 0.000244141C5.38357 0.000244141 0.000132055 5.38369 0.000132055 11.9926C-0.0433675 21.66 10.674 29.3984 11.13 29.7209ZM12 3.00021C16.9634 3.00021 20.9999 7.03667 20.9999 12.0076C21.0314 18.6645 14.418 24.642 12 26.6025C9.58353 24.6405 2.9686 18.6615 3.0001 12.0001C3.0001 7.03667 7.03655 3.00021 12 3.00021ZM12 18.0001C15.3089 18.0001 17.9999 15.3091 17.9999 12.0001C17.9999 8.69117 15.3089 6.0002 12 6.0002C8.69101 6.0002 6.00004 8.69117 6.00004 12.0001C6.00004 15.3091 8.69101 18.0001 12 18.0001ZM12 9.00016C13.6545 9.00016 14.9999 10.3456 14.9999 12.0001C14.9999 13.6546 13.6545 15.0001 12 15.0001C10.3455 15.0001 9.00001 13.6546 9.00001 12.0001C9.00001 10.3456 10.3455 9.00016 12 9.00016ZM11.13 29.7209C11.3839 29.9022 11.688 29.9997 12 29.9997C12.312 29.9997 12.6161 29.9022 12.87 29.7209C13.326 29.3984 24.0434 21.66 23.9999 12.0001C23.9999 5.38369 18.6164 0.000244141 12 0.000244141C5.38357 0.000244141 0.000132055 5.38369 0.000132055 11.9926C-0.0433675 21.66 10.674 29.3984 11.13 29.7209ZM12 3.00021C16.9634 3.00021 20.9999 7.03667 20.9999 12.0076C21.0314 18.6645 14.418 24.642 12 26.6025C9.58353 24.6405 2.9686 18.6615 3.0001 12.0001C3.0001 7.03667 7.03655 3.00021 12 3.00021Z" fill="white"/>
</svg>
