<svg width="143" height="19" viewBox="0 0 143 19" fill="none" xmlns="http://www.w3.org/2000/svg">
<path d="M7.408 18H0.0640001V1.224H6.592C7.728 1.224 8.704 1.36 9.52 1.632C10.352 1.904 10.976 2.272 11.392 2.736C12.144 3.6 12.52 4.576 12.52 5.664C12.52 6.976 12.096 7.952 11.248 8.592C10.96 8.816 10.76 8.96 10.648 9.024C10.536 9.072 10.336 9.16 10.048 9.288C11.088 9.512 11.912 9.984 12.52 10.704C13.144 11.408 13.456 12.288 13.456 13.344C13.456 14.512 13.056 15.544 12.256 16.44C11.328 17.48 9.712 18 7.408 18ZM3.808 8.016H5.584C6.624 8.016 7.392 7.904 7.888 7.68C8.4 7.456 8.656 6.976 8.656 6.24C8.656 5.488 8.424 4.992 7.96 4.752C7.496 4.512 6.712 4.392 5.608 4.392H3.808V8.016ZM3.808 14.832H6.376C7.448 14.832 8.248 14.704 8.776 14.448C9.32 14.176 9.592 13.656 9.592 12.888C9.592 12.104 9.304 11.592 8.728 11.352C8.168 11.096 7.264 10.968 6.016 10.968H3.808V14.832ZM23.1429 8.256C22.0709 8.256 21.2709 8.64 20.7429 9.408C20.2149 10.16 19.9509 11.16 19.9509 12.408V18H16.3509V5.088H19.9509V6.792C20.4149 6.264 20.9909 5.816 21.6789 5.448C22.3829 5.08 23.0949 4.888 23.8149 4.872L23.8389 8.256H23.1429ZM37.1689 18H33.7849V16.44C32.8569 17.608 31.7049 18.192 30.3289 18.192C28.9689 18.192 27.8249 17.8 26.8969 17.016C25.9689 16.216 25.5049 15.16 25.5049 13.848C25.5049 12.52 25.9849 11.528 26.9449 10.872C27.9049 10.216 29.2169 9.888 30.8809 9.888H33.5689V9.816C33.5689 8.44 32.8409 7.752 31.3849 7.752C30.7609 7.752 30.0969 7.88 29.3929 8.136C28.7049 8.376 28.1209 8.68 27.6409 9.048L26.0329 6.72C27.7289 5.488 29.6649 4.872 31.8409 4.872C33.4089 4.872 34.6889 5.264 35.6809 6.048C36.6729 6.832 37.1689 8.072 37.1689 9.768V18ZM33.5449 13.08V12.456H31.2889C29.8489 12.456 29.1289 12.904 29.1289 13.8C29.1289 14.264 29.2969 14.624 29.6329 14.88C29.9849 15.12 30.4809 15.24 31.1209 15.24C31.7609 15.24 32.3209 15.048 32.8009 14.664C33.2969 14.264 33.5449 13.736 33.5449 13.08ZM44.1509 10.8V18H40.5509V5.088H44.1509V6.528C45.2389 5.424 46.4629 4.872 47.8229 4.872C49.1829 4.872 50.3189 5.352 51.2309 6.312C52.1589 7.272 52.6229 8.552 52.6229 10.152V18H49.0229V10.704C49.0229 8.72 48.2949 7.728 46.8389 7.728C46.1189 7.728 45.4869 7.992 44.9429 8.52C44.4149 9.032 44.1509 9.792 44.1509 10.8ZM61.139 18.192C59.619 18.192 58.259 17.544 57.059 16.248C55.859 14.952 55.259 13.344 55.259 11.424C55.259 9.504 55.843 7.936 57.011 6.72C58.179 5.488 59.547 4.872 61.115 4.872C62.683 4.872 63.963 5.424 64.955 6.528V0.191999H68.555V18H64.955V16.296C63.947 17.56 62.675 18.192 61.139 18.192ZM58.883 11.568C58.883 12.608 59.195 13.464 59.819 14.136C60.443 14.792 61.171 15.12 62.003 15.12C62.835 15.12 63.539 14.792 64.115 14.136C64.707 13.464 65.003 12.608 65.003 11.568C65.003 10.512 64.707 9.64 64.115 8.952C63.539 8.248 62.827 7.896 61.979 7.896C61.131 7.896 60.403 8.248 59.795 8.952C59.187 9.656 58.883 10.528 58.883 11.568ZM84.1594 1.224H87.9034V18H84.1594L76.1674 7.488V18H72.4234V1.224H75.9274L84.1594 12.024V1.224ZM102.749 18H99.3646V16.44C98.4366 17.608 97.2846 18.192 95.9086 18.192C94.5486 18.192 93.4046 17.8 92.4766 17.016C91.5486 16.216 91.0846 15.16 91.0846 13.848C91.0846 12.52 91.5646 11.528 92.5246 10.872C93.4846 10.216 94.7966 9.888 96.4606 9.888H99.1486V9.816C99.1486 8.44 98.4206 7.752 96.9646 7.752C96.3406 7.752 95.6766 7.88 94.9726 8.136C94.2846 8.376 93.7006 8.68 93.2206 9.048L91.6126 6.72C93.3086 5.488 95.2446 4.872 97.4206 4.872C98.9886 4.872 100.269 5.264 101.261 6.048C102.253 6.832 102.749 8.072 102.749 9.768V18ZM99.1246 13.08V12.456H96.8686C95.4286 12.456 94.7086 12.904 94.7086 13.8C94.7086 14.264 94.8766 14.624 95.2126 14.88C95.5646 15.12 96.0606 15.24 96.7006 15.24C97.3406 15.24 97.9006 15.048 98.3806 14.664C98.8766 14.264 99.1246 13.736 99.1246 13.08ZM117.987 11.04V18H114.363V10.944C114.363 9.92 114.203 9.168 113.883 8.688C113.579 8.208 113.075 7.968 112.371 7.968C111.683 7.968 111.067 8.232 110.523 8.76C109.995 9.272 109.731 10.032 109.731 11.04V18H106.131V5.088H109.731V6.552C110.723 5.432 111.859 4.872 113.139 4.872C113.955 4.872 114.691 5.112 115.347 5.592C116.019 6.072 116.523 6.656 116.859 7.344C117.355 6.56 118.019 5.952 118.851 5.52C119.699 5.088 120.547 4.872 121.395 4.872C122.915 4.872 124.139 5.328 125.067 6.24C125.995 7.136 126.459 8.44 126.459 10.152V18H122.835V10.944C122.835 8.96 122.107 7.968 120.651 7.968C119.931 7.968 119.307 8.232 118.779 8.76C118.251 9.272 117.987 10.032 117.987 11.04ZM141.016 16.128C139.56 17.504 137.848 18.192 135.88 18.192C133.928 18.192 132.312 17.592 131.032 16.392C129.752 15.176 129.112 13.552 129.112 11.52C129.112 9.488 129.76 7.872 131.056 6.672C132.368 5.472 133.912 4.872 135.688 4.872C137.464 4.872 138.968 5.408 140.2 6.48C141.448 7.552 142.072 9.024 142.072 10.896V12.816H132.664C132.776 13.52 133.144 14.096 133.768 14.544C134.392 14.992 135.096 15.216 135.88 15.216C137.144 15.216 138.184 14.792 139 13.944L141.016 16.128ZM138.424 10.248C138.344 9.48 138.056 8.888 137.56 8.472C137.064 8.056 136.456 7.848 135.736 7.848C135.032 7.848 134.384 8.064 133.792 8.496C133.2 8.928 132.856 9.512 132.76 10.248H138.424Z" fill="white"/>
</svg>
