<svg width="24" height="21" viewBox="0 0 24 21" fill="none" xmlns="http://www.w3.org/2000/svg">
<path fill-rule="evenodd" clip-rule="evenodd" d="M-0.91875 2.71691C-0.75492 1.98065 -0.352185 1.32327 0.223498 0.852425C0.79918 0.381584 1.51369 0.125193 2.25 0.125244H21.75C22.4863 0.125193 23.2008 0.381584 23.7765 0.852425C24.3522 1.32327 24.7549 1.98065 24.9187 2.71691L12 10.8152L-0.91875 2.71691ZM-1 4.62024V16.4602L8.42988 10.5302L-1 4.62024ZM9.98663 11.5086L-0.689625 18.2202C-0.425844 18.7907 -0.00951922 19.2726 0.510895 19.6099C1.03131 19.9471 1.63441 20.1258 2.25 20.1252H21.75C22.3655 20.1254 22.9684 19.9463 23.4885 19.6087C24.0086 19.2712 24.4246 18.7891 24.688 18.2186L14.0118 11.5069L12 12.7686L9.98663 11.5069V11.5086ZM15.5701 10.5319L25 16.4602V4.62024L15.5701 10.5302V10.5319Z" fill="white"/>
</svg>
