<svg width="132" height="23" viewBox="0 0 132 23" fill="none" xmlns="http://www.w3.org/2000/svg">
<g clip-path="url(#clip0_0_345)">
<path d="M21.0967 8.41927C21.039 8.24946 20.9329 8.10025 20.7914 7.99006C20.6499 7.87987 20.4793 7.81353 20.3005 7.79922L15.0714 7.38371L12.8086 2.3747C12.7365 2.21337 12.6193 2.07634 12.4711 1.98016C12.3228 1.88397 12.15 1.83274 11.9733 1.83264C11.7966 1.83254 11.6236 1.88359 11.4753 1.97961C11.327 2.07563 11.2096 2.21253 11.1374 2.37378L8.87455 7.38371L3.64539 7.79922C3.4697 7.81314 3.30174 7.87738 3.1616 7.98425C3.02147 8.09113 2.91509 8.23612 2.85519 8.40187C2.7953 8.56762 2.78442 8.74712 2.82387 8.91889C2.86332 9.09066 2.95142 9.24743 3.07763 9.37044L6.94193 13.1375L5.57526 19.0555C5.53376 19.2347 5.54706 19.4221 5.61343 19.5936C5.6798 19.7651 5.79618 19.9127 5.94747 20.0172C6.09876 20.1217 6.27797 20.1783 6.46184 20.1797C6.64571 20.1811 6.82576 20.1272 6.97862 20.025L11.973 16.6955L16.9673 20.025C17.1235 20.1288 17.3078 20.1822 17.4953 20.1781C17.6828 20.1739 17.8645 20.1125 18.0161 20.002C18.1676 19.8916 18.2817 19.7373 18.3429 19.5601C18.4042 19.3828 18.4097 19.1911 18.3587 19.0106L16.6811 13.1403L20.8417 9.39612C21.1141 9.15031 21.2141 8.7669 21.0967 8.41927Z" fill="#F3CD03"/>
<path d="M48.1116 8.41927C48.054 8.24946 47.9478 8.10025 47.8064 7.99006C47.6649 7.87987 47.4942 7.81353 47.3155 7.79922L42.0863 7.38371L39.8235 2.3747C39.7514 2.21337 39.6342 2.07634 39.486 1.98016C39.3378 1.88397 39.1649 1.83274 38.9882 1.83264C38.8115 1.83254 38.6385 1.88359 38.4902 1.97961C38.3419 2.07563 38.2245 2.21253 38.1523 2.37378L35.8895 7.38371L30.6603 7.79922C30.4846 7.81314 30.3167 7.87738 30.1765 7.98425C30.0364 8.09113 29.93 8.23612 29.8701 8.40187C29.8102 8.56762 29.7993 8.74712 29.8388 8.91889C29.8782 9.09066 29.9663 9.24743 30.0926 9.37044L33.9569 13.1375L32.5902 19.0555C32.5487 19.2347 32.562 19.4221 32.6284 19.5936C32.6947 19.7651 32.8111 19.9127 32.9624 20.0172C33.1137 20.1217 33.2929 20.1783 33.4768 20.1797C33.6606 20.1811 33.8407 20.1272 33.9935 20.025L38.9879 16.6955L43.9822 20.025C44.1385 20.1288 44.3227 20.1822 44.5102 20.1781C44.6977 20.1739 44.8794 20.1125 45.031 20.002C45.1825 19.8916 45.2966 19.7373 45.3579 19.5601C45.4191 19.3828 45.4246 19.1911 45.3737 19.0106L43.696 13.1403L47.8566 9.39612C48.129 9.15031 48.229 8.7669 48.1116 8.41927Z" fill="#F3CD03"/>
<path d="M75.1227 8.41927C75.065 8.24946 74.9589 8.10025 74.8174 7.99006C74.6759 7.87987 74.5053 7.81353 74.3265 7.79922L69.0974 7.38371L66.8345 2.3747C66.7625 2.21337 66.6453 2.07634 66.497 1.98016C66.3488 1.88397 66.1759 1.83274 65.9992 1.83264C65.8225 1.83254 65.6496 1.88359 65.5013 1.97961C65.3529 2.07563 65.2356 2.21253 65.1633 2.37378L62.9005 7.38371L57.6714 7.79922C57.4957 7.81314 57.3277 7.87738 57.1876 7.98425C57.0474 8.09113 56.9411 8.23612 56.8812 8.40187C56.8213 8.56762 56.8104 8.74712 56.8498 8.91889C56.8893 9.09066 56.9774 9.24743 57.1036 9.37044L60.9679 13.1375L59.6012 19.0555C59.5597 19.2347 59.573 19.4221 59.6394 19.5936C59.7058 19.7651 59.8222 19.9127 59.9734 20.0172C60.1247 20.1217 60.3039 20.1783 60.4878 20.1797C60.6717 20.1811 60.8517 20.1272 61.0046 20.025L65.9989 16.6955L70.9933 20.025C71.1495 20.1288 71.3338 20.1822 71.5213 20.1781C71.7088 20.1739 71.8905 20.1125 72.042 20.002C72.1936 19.8916 72.3076 19.7373 72.3689 19.5601C72.4302 19.3828 72.4357 19.1911 72.3847 19.0106L70.7071 13.1403L74.8677 9.39612C75.1401 9.15031 75.2401 8.7669 75.1227 8.41927Z" fill="#F3CD03"/>
<path d="M102.137 8.41927C102.079 8.24946 101.973 8.10025 101.831 7.99006C101.69 7.87987 101.519 7.81353 101.34 7.79922L96.1113 7.38371L93.8485 2.3747C93.7764 2.21337 93.6592 2.07634 93.511 1.98016C93.3628 1.88397 93.1899 1.83274 93.0132 1.83264C92.8365 1.83254 92.6636 1.88359 92.5152 1.97961C92.3669 2.07563 92.2495 2.21253 92.1773 2.37378L89.9145 7.38371L84.6853 7.79922C84.5096 7.81314 84.3417 7.87738 84.2015 7.98425C84.0614 8.09113 83.955 8.23612 83.8951 8.40187C83.8352 8.56762 83.8244 8.74712 83.8638 8.91889C83.9032 9.09066 83.9913 9.24743 84.1176 9.37044L87.9819 13.1375L86.6152 19.0555C86.5737 19.2347 86.587 19.4221 86.6534 19.5936C86.7197 19.7651 86.8361 19.9127 86.9874 20.0172C87.1387 20.1217 87.3179 20.1783 87.5018 20.1797C87.6856 20.1811 87.8657 20.1272 88.0186 20.025L93.0129 16.6955L98.0072 20.025C98.1635 20.1288 98.3477 20.1822 98.5352 20.1781C98.7227 20.1739 98.9045 20.1125 99.056 20.002C99.2075 19.8916 99.3216 19.7373 99.3829 19.5601C99.4441 19.3828 99.4497 19.1911 99.3987 19.0106L97.7211 13.1403L101.882 9.39612C102.154 9.15031 102.254 8.7669 102.137 8.41927Z" fill="#F3CD03"/>
<path d="M114.998 13.1376L113.631 19.0556C113.589 19.2348 113.601 19.4226 113.667 19.5945C113.734 19.7663 113.85 19.9143 114.001 20.019C114.153 20.1237 114.332 20.1803 114.516 20.1814C114.701 20.1825 114.881 20.128 115.033 20.0251L120.028 16.6956L125.022 20.0251C125.178 20.1289 125.363 20.1823 125.55 20.1781C125.738 20.174 125.919 20.1126 126.071 20.0021C126.222 19.8916 126.337 19.7374 126.398 19.5602C126.459 19.3829 126.465 19.1911 126.414 19.0107L124.736 13.1404L128.897 9.39622C129.03 9.27623 129.125 9.11982 129.17 8.94632C129.216 8.77283 129.209 8.58986 129.151 8.42004C129.094 8.25023 128.988 8.10101 128.846 7.99085C128.705 7.88069 128.534 7.81442 128.355 7.80023L123.126 7.3838L120.863 2.37479C120.791 2.2135 120.674 2.07654 120.526 1.98043C120.377 1.88433 120.205 1.83319 120.028 1.83319C119.851 1.83319 119.678 1.88433 119.53 1.98043C119.382 2.07654 119.264 2.2135 119.192 2.37479L116.929 7.3838L111.7 7.79931C111.525 7.81323 111.357 7.87747 111.216 7.98434C111.076 8.09122 110.97 8.23621 110.91 8.40196C110.85 8.56771 110.839 8.74721 110.879 8.91898C110.918 9.09075 111.006 9.24752 111.132 9.37053L114.998 13.1376ZM117.615 9.16966C117.778 9.15676 117.936 9.10005 118.07 9.00549C118.204 8.91092 118.31 8.78197 118.378 8.63216L120.028 4.98065L121.678 8.63216C121.745 8.78197 121.852 8.91092 121.986 9.00549C122.12 9.10005 122.277 9.15676 122.441 9.16966L126.084 9.45859L123.084 12.1589C122.824 12.3937 122.72 12.7551 122.815 13.0927L123.965 17.1147L120.538 14.8299C120.387 14.729 120.21 14.6751 120.029 14.6751C119.848 14.6751 119.671 14.729 119.521 14.8299L115.94 17.2175L116.903 13.0477C116.938 12.8944 116.933 12.7345 116.889 12.5835C116.845 12.4325 116.762 12.2954 116.65 12.1855L113.863 9.46868L117.615 9.16966Z" fill="#F3CD03"/>
</g>
<defs>
<clipPath id="clip0_0_345">
<rect width="130.068" height="22.0136" fill="white" transform="translate(0.965942)"/>
</clipPath>
</defs>
</svg>
