<svg width="103" height="43" fill="none" xmlns="http://www.w3.org/2000/svg"><path d="M26.555 3.793l-6.968 1.464-.032 22.654c0 4.184 3.186 6.889 7.419 6.889 2.35 0 4.072-.43 5.021-.939v-5.377c-.917.366-5.423 1.67-5.423-2.498V15.932h5.423V9.918h-5.423l-.017-6.125zm14.34 8.21l-.434-2.085h-6.18v24.373h7.129V17.889c1.69-2.196 4.539-1.766 5.456-1.48V9.92c-.966-.335-4.297-.955-5.971 2.083zM55.75.5l-7.178 1.511v5.76l7.178-1.512V.5zM7.227 17.093c0-1.098.933-1.527 2.43-1.543 2.173 0 4.94.652 7.113 1.814v-6.65c-2.365-.923-4.731-1.289-7.097-1.289-5.794 0-9.656 2.99-9.656 7.986 0 7.828 10.863 6.555 10.863 9.928 0 1.304-1.142 1.734-2.736 1.734-2.366 0-5.423-.97-7.821-2.26v6.364a20.003 20.003 0 0 0 7.805 1.607c5.939 0 10.027-2.514 10.027-7.604 0-8.416-10.928-6.905-10.928-10.087zM103 22.391c0-7.239-3.54-12.95-10.332-12.95-6.792 0-10.928 5.711-10.928 12.902 0 8.512 4.876 12.441 11.829 12.441 3.412 0 5.97-.764 7.918-1.83v-5.313c-1.947.97-4.184 1.559-7.017 1.559-2.784 0-5.23-.97-5.552-4.28h13.985c.032-.366.097-1.845.097-2.53zm-14.147-2.673c0-3.182 1.98-4.518 3.766-4.518 1.755 0 3.621 1.336 3.621 4.518h-7.387zM70.684 9.441c-2.8 0-4.602 1.304-5.6 2.211l-.37-1.75H58.42v32.582l7.146-1.495.016-7.987c1.03.748 2.559 1.782 5.053 1.782 5.118 0 9.785-3.69 9.785-12.663.016-8.21-4.715-12.68-9.736-12.68zM68.98 28.93c-1.674 0-2.672-.605-3.364-1.337l-.048-10.5c.74-.811 1.77-1.4 3.412-1.4 2.607 0 4.41 2.896 4.41 6.586.015 3.803-1.755 6.65-4.41 6.65zm-20.391 5.36h7.178V9.919h-7.178v24.373z" fill="#fff"/></svg>